<svg width="860" height="411" viewBox="0 0 860 411" fill="none" xmlns="http://www.w3.org/2000/svg">
<path d="M744.48 50.004C820.893 80.2742 872.372 128.799 857.411 170.007C842.289 211.291 760.567 245.335 684.153 293.475C607.74 341.615 536.635 403.85 451.857 410.397C366.917 417.021 268.304 367.957 180.147 319.817C91.9902 271.677 14.129 224.462 1.74198 171.316C-10.4842 118.247 42.603 59.2468 130.921 28.9766C219.078 -1.37058 342.304 -2.91105 454.592 2.32654C566.718 7.56414 668.066 19.7338 744.48 50.004Z" fill="black"/>
<path d="M132.653 177V126.6H173.253C175.026 126.6 176.659 127.043 178.153 127.93C179.646 128.817 180.836 130.007 181.723 131.5C182.609 132.947 183.053 134.557 183.053 136.33V167.27C183.053 169.043 182.609 170.677 181.723 172.17C180.836 173.617 179.646 174.783 178.153 175.67C176.659 176.557 175.026 177 173.253 177H132.653ZM142.663 167.69H172.833C173.066 167.69 173.276 167.62 173.463 167.48C173.649 167.293 173.743 167.083 173.743 166.85V136.75C173.743 136.517 173.649 136.33 173.463 136.19C173.276 136.003 173.066 135.91 172.833 135.91H142.663C142.429 135.91 142.219 136.003 142.033 136.19C141.893 136.33 141.823 136.517 141.823 136.75V166.85C141.823 167.083 141.893 167.293 142.033 167.48C142.219 167.62 142.429 167.69 142.663 167.69ZM200.202 177C198.428 177 196.818 176.557 195.372 175.67C193.925 174.783 192.758 173.617 191.872 172.17C190.985 170.723 190.542 169.113 190.542 167.34V146.06C190.542 144.287 190.985 142.677 191.872 141.23C192.758 139.783 193.925 138.617 195.372 137.73C196.818 136.843 198.428 136.4 200.202 136.4H222.112C223.885 136.4 225.495 136.843 226.942 137.73C228.435 138.617 229.602 139.783 230.442 141.23C231.328 142.677 231.772 144.287 231.772 146.06V161.32H199.712V166.99C199.712 167.223 199.782 167.433 199.922 167.62C200.108 167.76 200.318 167.83 200.552 167.83H231.772V177H200.202ZM199.712 153.06H222.602V146.41C222.602 146.177 222.508 145.99 222.322 145.85C222.182 145.663 221.995 145.57 221.762 145.57H200.552C200.318 145.57 200.108 145.663 199.922 145.85C199.782 145.99 199.712 146.177 199.712 146.41V153.06ZM247.98 177C246.207 177 244.597 176.557 243.15 175.67C241.703 174.783 240.537 173.617 239.65 172.17C238.763 170.723 238.32 169.113 238.32 167.34V165.8H247.49V166.99C247.49 167.223 247.56 167.433 247.7 167.62C247.887 167.76 248.097 167.83 248.33 167.83H269.54C269.773 167.83 269.96 167.76 270.1 167.62C270.287 167.433 270.38 167.223 270.38 166.99V162.16C270.38 161.927 270.287 161.74 270.1 161.6C269.96 161.413 269.773 161.32 269.54 161.32H247.98C246.207 161.32 244.597 160.877 243.15 159.99C241.703 159.103 240.537 157.937 239.65 156.49C238.763 155.043 238.32 153.433 238.32 151.66V146.06C238.32 144.287 238.763 142.677 239.65 141.23C240.537 139.783 241.703 138.617 243.15 137.73C244.597 136.843 246.207 136.4 247.98 136.4H269.89C271.71 136.4 273.343 136.843 274.79 137.73C276.237 138.617 277.403 139.783 278.29 141.23C279.177 142.677 279.62 144.287 279.62 146.06V147.6H270.38V146.41C270.38 146.177 270.287 145.99 270.1 145.85C269.96 145.663 269.773 145.57 269.54 145.57H248.33C248.097 145.57 247.887 145.663 247.7 145.85C247.56 145.99 247.49 146.177 247.49 146.41V151.24C247.49 151.473 247.56 151.683 247.7 151.87C247.887 152.01 248.097 152.08 248.33 152.08H269.89C271.71 152.08 273.343 152.523 274.79 153.41C276.237 154.297 277.403 155.463 278.29 156.91C279.177 158.357 279.62 159.967 279.62 161.74V167.34C279.62 169.113 279.177 170.723 278.29 172.17C277.403 173.617 276.237 174.783 274.79 175.67C273.343 176.557 271.71 177 269.89 177H247.98ZM294.811 177C293.038 177 291.428 176.557 289.981 175.67C288.534 174.783 287.368 173.617 286.481 172.17C285.594 170.723 285.151 169.113 285.151 167.34V146.06C285.151 144.287 285.594 142.677 286.481 141.23C287.368 139.783 288.534 138.617 289.981 137.73C291.428 136.843 293.038 136.4 294.811 136.4H326.311V145.57H295.161C294.928 145.57 294.718 145.663 294.531 145.85C294.391 145.99 294.321 146.177 294.321 146.41V166.99C294.321 167.223 294.391 167.433 294.531 167.62C294.718 167.76 294.928 167.83 295.161 167.83H326.381V177H294.811ZM341.914 177C340.141 177 338.507 176.557 337.014 175.67C335.567 174.783 334.401 173.617 333.514 172.17C332.674 170.723 332.254 169.113 332.254 167.34V136.4H341.424V166.99C341.424 167.223 341.494 167.433 341.634 167.62C341.821 167.76 342.031 167.83 342.264 167.83H363.474C363.707 167.83 363.894 167.76 364.034 167.62C364.221 167.433 364.314 167.223 364.314 166.99V136.4H373.484V167.34C373.484 169.113 373.041 170.723 372.154 172.17C371.314 173.617 370.171 174.783 368.724 175.67C367.277 176.557 365.644 177 363.824 177H341.914ZM379.424 177V123.1H388.594V136.4H410.994C412.767 136.4 414.377 136.843 415.824 137.73C417.317 138.617 418.484 139.783 419.324 141.23C420.21 142.677 420.654 144.287 420.654 146.06V167.34C420.654 169.113 420.21 170.723 419.324 172.17C418.484 173.617 417.317 174.783 415.824 175.67C414.377 176.557 412.767 177 410.994 177H379.424ZM389.434 167.83H410.644C410.877 167.83 411.064 167.76 411.204 167.62C411.39 167.433 411.484 167.223 411.484 166.99V146.41C411.484 146.177 411.39 145.99 411.204 145.85C411.064 145.663 410.877 145.57 410.644 145.57H389.434C389.2 145.57 388.99 145.663 388.804 145.85C388.664 145.99 388.594 146.177 388.594 146.41V166.99C388.594 167.223 388.664 167.433 388.804 167.62C388.99 167.76 389.2 167.83 389.434 167.83ZM425.973 177V146.06C425.973 144.287 426.416 142.677 427.303 141.23C428.19 139.783 429.356 138.617 430.803 137.73C432.296 136.843 433.906 136.4 435.633 136.4H458.173V145.57H435.983C435.75 145.57 435.54 145.663 435.353 145.85C435.213 145.99 435.143 146.177 435.143 146.41V177H425.973ZM472.614 177C470.84 177 469.23 176.557 467.784 175.67C466.337 174.783 465.17 173.617 464.284 172.17C463.397 170.723 462.954 169.113 462.954 167.34V146.06C462.954 144.287 463.397 142.677 464.284 141.23C465.17 139.783 466.337 138.617 467.784 137.73C469.23 136.843 470.84 136.4 472.614 136.4H494.524C496.297 136.4 497.907 136.843 499.354 137.73C500.847 138.617 502.014 139.783 502.854 141.23C503.74 142.677 504.184 144.287 504.184 146.06V161.32H472.124V166.99C472.124 167.223 472.194 167.433 472.334 167.62C472.52 167.76 472.73 167.83 472.964 167.83H504.184V177H472.614ZM472.124 153.06H495.014V146.41C495.014 146.177 494.92 145.99 494.734 145.85C494.594 145.663 494.407 145.57 494.174 145.57H472.964C472.73 145.57 472.52 145.663 472.334 145.85C472.194 145.99 472.124 146.177 472.124 146.41V153.06ZM542.617 177C540.844 177 539.234 176.557 537.787 175.67C536.34 174.783 535.174 173.617 534.287 172.17C533.4 170.723 532.957 169.113 532.957 167.34V123.94H542.127V136.4H557.947V145.57H542.127V166.99C542.127 167.223 542.197 167.433 542.337 167.62C542.524 167.76 542.734 167.83 542.967 167.83H557.947V177H542.617ZM573.17 177C571.397 177 569.787 176.557 568.34 175.67C566.894 174.783 565.727 173.617 564.84 172.17C563.954 170.723 563.51 169.113 563.51 167.34V146.06C563.51 144.287 563.954 142.677 564.84 141.23C565.727 139.783 566.894 138.617 568.34 137.73C569.787 136.843 571.397 136.4 573.17 136.4H595.08C596.854 136.4 598.464 136.843 599.91 137.73C601.404 138.617 602.57 139.783 603.41 141.23C604.297 142.677 604.74 144.287 604.74 146.06V167.34C604.74 169.113 604.297 170.723 603.41 172.17C602.57 173.617 601.427 174.783 599.98 175.67C598.534 176.557 596.9 177 595.08 177H573.17ZM573.52 167.83H594.73C594.964 167.83 595.15 167.76 595.29 167.62C595.477 167.433 595.57 167.223 595.57 166.99V146.41C595.57 146.177 595.477 145.99 595.29 145.85C595.15 145.663 594.964 145.57 594.73 145.57H573.52C573.287 145.57 573.077 145.663 572.89 145.85C572.75 145.99 572.68 146.177 572.68 146.41V166.99C572.68 167.223 572.75 167.433 572.89 167.62C573.077 167.76 573.287 167.83 573.52 167.83ZM619.677 177C617.857 177 616.224 176.557 614.777 175.67C613.331 174.783 612.164 173.617 611.277 172.17C610.437 170.723 610.017 169.113 610.017 167.34V146.06C610.017 144.287 610.437 142.677 611.277 141.23C612.164 139.783 613.331 138.617 614.777 137.73C616.224 136.843 617.857 136.4 619.677 136.4H642.147V123.1H651.317V177H619.677ZM620.097 167.83H641.307C641.541 167.83 641.727 167.76 641.867 167.62C642.054 167.433 642.147 167.223 642.147 166.99V146.41C642.147 146.177 642.054 145.99 641.867 145.85C641.727 145.663 641.541 145.57 641.307 145.57H620.097C619.864 145.57 619.654 145.663 619.467 145.85C619.327 145.99 619.257 146.177 619.257 146.41V166.99C619.257 167.223 619.327 167.433 619.467 167.62C619.654 167.76 619.864 167.83 620.097 167.83ZM666.686 177C664.913 177 663.303 176.557 661.856 175.67C660.409 174.783 659.243 173.617 658.356 172.17C657.469 170.723 657.026 169.113 657.026 167.34V146.06C657.026 144.287 657.469 142.677 658.356 141.23C659.243 139.783 660.409 138.617 661.856 137.73C663.303 136.843 664.913 136.4 666.686 136.4H688.596C690.369 136.4 691.979 136.843 693.426 137.73C694.919 138.617 696.086 139.783 696.926 141.23C697.813 142.677 698.256 144.287 698.256 146.06V167.34C698.256 169.113 697.813 170.723 696.926 172.17C696.086 173.617 694.943 174.783 693.496 175.67C692.049 176.557 690.416 177 688.596 177H666.686ZM667.036 167.83H688.246C688.479 167.83 688.666 167.76 688.806 167.62C688.993 167.433 689.086 167.223 689.086 166.99V146.41C689.086 146.177 688.993 145.99 688.806 145.85C688.666 145.663 688.479 145.57 688.246 145.57H667.036C666.803 145.57 666.593 145.663 666.406 145.85C666.266 145.99 666.196 146.177 666.196 146.41V166.99C666.196 167.223 666.266 167.433 666.406 167.62C666.593 167.76 666.803 167.83 667.036 167.83ZM713.439 177C711.666 177 710.056 176.557 708.609 175.67C707.162 174.783 705.996 173.617 705.109 172.17C704.222 170.723 703.779 169.113 703.779 167.34V165.8H712.949V166.99C712.949 167.223 713.019 167.433 713.159 167.62C713.346 167.76 713.556 167.83 713.789 167.83H734.999C735.232 167.83 735.419 167.76 735.559 167.62C735.746 167.433 735.839 167.223 735.839 166.99V162.16C735.839 161.927 735.746 161.74 735.559 161.6C735.419 161.413 735.232 161.32 734.999 161.32H713.439C711.666 161.32 710.056 160.877 708.609 159.99C707.162 159.103 705.996 157.937 705.109 156.49C704.222 155.043 703.779 153.433 703.779 151.66V146.06C703.779 144.287 704.222 142.677 705.109 141.23C705.996 139.783 707.162 138.617 708.609 137.73C710.056 136.843 711.666 136.4 713.439 136.4H735.349C737.169 136.4 738.802 136.843 740.249 137.73C741.696 138.617 742.862 139.783 743.749 141.23C744.636 142.677 745.079 144.287 745.079 146.06V147.6H735.839V146.41C735.839 146.177 735.746 145.99 735.559 145.85C735.419 145.663 735.232 145.57 734.999 145.57H713.789C713.556 145.57 713.346 145.663 713.159 145.85C713.019 145.99 712.949 146.177 712.949 146.41V151.24C712.949 151.473 713.019 151.683 713.159 151.87C713.346 152.01 713.556 152.08 713.789 152.08H735.349C737.169 152.08 738.802 152.523 740.249 153.41C741.696 154.297 742.862 155.463 743.749 156.91C744.636 158.357 745.079 159.967 745.079 161.74V167.34C745.079 169.113 744.636 170.723 743.749 172.17C742.862 173.617 741.696 174.783 740.249 175.67C738.802 176.557 737.169 177 735.349 177H713.439ZM239.134 265C237.361 265 235.751 264.557 234.304 263.67C232.857 262.783 231.691 261.617 230.804 260.17C229.917 258.723 229.474 257.113 229.474 255.34V211.03H238.714V254.99C238.714 255.223 238.784 255.433 238.924 255.62C239.111 255.76 239.321 255.83 239.554 255.83H247.324V265H239.134ZM262.169 265C260.396 265 258.786 264.557 257.339 263.67C255.893 262.783 254.726 261.617 253.839 260.17C252.953 258.723 252.509 257.113 252.509 255.34V234.06C252.509 232.287 252.953 230.677 253.839 229.23C254.726 227.783 255.893 226.617 257.339 225.73C258.786 224.843 260.396 224.4 262.169 224.4H284.079C285.853 224.4 287.463 224.843 288.909 225.73C290.403 226.617 291.569 227.783 292.409 229.23C293.296 230.677 293.739 232.287 293.739 234.06V255.34C293.739 257.113 293.296 258.723 292.409 260.17C291.569 261.617 290.426 262.783 288.979 263.67C287.533 264.557 285.899 265 284.079 265H262.169ZM262.519 255.83H283.729C283.963 255.83 284.149 255.76 284.289 255.62C284.476 255.433 284.569 255.223 284.569 254.99V234.41C284.569 234.177 284.476 233.99 284.289 233.85C284.149 233.663 283.963 233.57 283.729 233.57H262.519C262.286 233.57 262.076 233.663 261.889 233.85C261.749 233.99 261.679 234.177 261.679 234.41V254.99C261.679 255.223 261.749 255.433 261.889 255.62C262.076 255.76 262.286 255.83 262.519 255.83ZM308.922 265C307.149 265 305.539 264.557 304.092 263.67C302.646 262.783 301.479 261.617 300.592 260.17C299.706 258.723 299.262 257.113 299.262 255.34V253.8H308.432V254.99C308.432 255.223 308.502 255.433 308.642 255.62C308.829 255.76 309.039 255.83 309.272 255.83H330.482C330.716 255.83 330.902 255.76 331.042 255.62C331.229 255.433 331.322 255.223 331.322 254.99V250.16C331.322 249.927 331.229 249.74 331.042 249.6C330.902 249.413 330.716 249.32 330.482 249.32H308.922C307.149 249.32 305.539 248.877 304.092 247.99C302.646 247.103 301.479 245.937 300.592 244.49C299.706 243.043 299.262 241.433 299.262 239.66V234.06C299.262 232.287 299.706 230.677 300.592 229.23C301.479 227.783 302.646 226.617 304.092 225.73C305.539 224.843 307.149 224.4 308.922 224.4H330.832C332.652 224.4 334.286 224.843 335.732 225.73C337.179 226.617 338.346 227.783 339.232 229.23C340.119 230.677 340.562 232.287 340.562 234.06V235.6H331.322V234.41C331.322 234.177 331.229 233.99 331.042 233.85C330.902 233.663 330.716 233.57 330.482 233.57H309.272C309.039 233.57 308.829 233.663 308.642 233.85C308.502 233.99 308.432 234.177 308.432 234.41V239.24C308.432 239.473 308.502 239.683 308.642 239.87C308.829 240.01 309.039 240.08 309.272 240.08H330.832C332.652 240.08 334.286 240.523 335.732 241.41C337.179 242.297 338.346 243.463 339.232 244.91C340.119 246.357 340.562 247.967 340.562 249.74V255.34C340.562 257.113 340.119 258.723 339.232 260.17C338.346 261.617 337.179 262.783 335.732 263.67C334.286 264.557 332.652 265 330.832 265H308.922ZM378.587 265C376.814 265 375.204 264.557 373.757 263.67C372.31 262.783 371.144 261.617 370.257 260.17C369.37 258.723 368.927 257.113 368.927 255.34V211.03H378.167V254.99C378.167 255.223 378.237 255.433 378.377 255.62C378.564 255.76 378.774 255.83 379.007 255.83H386.777V265H378.587ZM401.623 265C399.849 265 398.239 264.557 396.793 263.67C395.346 262.783 394.179 261.617 393.293 260.17C392.406 258.723 391.963 257.113 391.963 255.34V234.06C391.963 232.287 392.406 230.677 393.293 229.23C394.179 227.783 395.346 226.617 396.793 225.73C398.239 224.843 399.849 224.4 401.623 224.4H423.533C425.306 224.4 426.916 224.843 428.363 225.73C429.856 226.617 431.023 227.783 431.863 229.23C432.749 230.677 433.193 232.287 433.193 234.06V255.34C433.193 257.113 432.749 258.723 431.863 260.17C431.023 261.617 429.879 262.783 428.433 263.67C426.986 264.557 425.353 265 423.533 265H401.623ZM401.973 255.83H423.183C423.416 255.83 423.603 255.76 423.743 255.62C423.929 255.433 424.023 255.223 424.023 254.99V234.41C424.023 234.177 423.929 233.99 423.743 233.85C423.603 233.663 423.416 233.57 423.183 233.57H401.973C401.739 233.57 401.529 233.663 401.343 233.85C401.203 233.99 401.133 234.177 401.133 234.41V254.99C401.133 255.223 401.203 255.433 401.343 255.62C401.529 255.76 401.739 255.83 401.973 255.83ZM450.089 265C448.316 265 446.706 264.557 445.259 263.67C443.813 262.783 442.646 261.617 441.759 260.17C440.873 258.723 440.429 257.113 440.429 255.34V234.06C440.429 232.287 440.873 230.677 441.759 229.23C442.646 227.783 443.813 226.617 445.259 225.73C446.706 224.843 448.316 224.4 450.089 224.4H481.589V233.57H450.439C450.206 233.57 449.996 233.663 449.809 233.85C449.669 233.99 449.599 234.177 449.599 234.41V254.99C449.599 255.223 449.669 255.433 449.809 255.62C449.996 255.76 450.206 255.83 450.439 255.83H481.659V265H450.089ZM498.353 265C496.579 265 494.946 264.557 493.453 263.67C492.006 262.783 490.839 261.617 489.953 260.17C489.113 258.723 488.693 257.113 488.693 255.34V240.08H520.753V234.41C520.753 234.177 520.659 233.99 520.473 233.85C520.333 233.663 520.146 233.57 519.913 233.57H488.693V224.4H520.263C522.036 224.4 523.646 224.843 525.093 225.73C526.586 226.617 527.753 227.783 528.593 229.23C529.479 230.677 529.923 232.287 529.923 234.06V265H498.353ZM498.703 255.83H520.753V248.34H497.863V254.99C497.863 255.223 497.933 255.433 498.073 255.62C498.259 255.76 498.469 255.83 498.703 255.83ZM545.452 265C543.679 265 542.069 264.557 540.622 263.67C539.176 262.783 538.009 261.617 537.122 260.17C536.236 258.723 535.792 257.113 535.792 255.34V211.03H545.032V254.99C545.032 255.223 545.102 255.433 545.242 255.62C545.429 255.76 545.639 255.83 545.872 255.83H553.642V265H545.452ZM568.419 265C566.646 265 565.036 264.557 563.589 263.67C562.143 262.783 560.976 261.617 560.089 260.17C559.203 258.723 558.759 257.113 558.759 255.34V234.06C558.759 232.287 559.203 230.677 560.089 229.23C560.976 227.783 562.143 226.617 563.589 225.73C565.036 224.843 566.646 224.4 568.419 224.4H590.329C592.103 224.4 593.713 224.843 595.159 225.73C596.653 226.617 597.819 227.783 598.659 229.23C599.546 230.677 599.989 232.287 599.989 234.06V249.32H567.929V254.99C567.929 255.223 567.999 255.433 568.139 255.62C568.326 255.76 568.536 255.83 568.769 255.83H599.989V265H568.419ZM567.929 241.06H590.819V234.41C590.819 234.177 590.726 233.99 590.539 233.85C590.399 233.663 590.213 233.57 589.979 233.57H568.769C568.536 233.57 568.326 233.663 568.139 233.85C567.999 233.99 567.929 234.177 567.929 234.41V241.06ZM616.198 265C614.424 265 612.814 264.557 611.368 263.67C609.921 262.783 608.754 261.617 607.868 260.17C606.981 258.723 606.538 257.113 606.538 255.34V253.8H615.708V254.99C615.708 255.223 615.778 255.433 615.918 255.62C616.104 255.76 616.314 255.83 616.548 255.83H637.758C637.991 255.83 638.178 255.76 638.318 255.62C638.504 255.433 638.598 255.223 638.598 254.99V250.16C638.598 249.927 638.504 249.74 638.318 249.6C638.178 249.413 637.991 249.32 637.758 249.32H616.198C614.424 249.32 612.814 248.877 611.368 247.99C609.921 247.103 608.754 245.937 607.868 244.49C606.981 243.043 606.538 241.433 606.538 239.66V234.06C606.538 232.287 606.981 230.677 607.868 229.23C608.754 227.783 609.921 226.617 611.368 225.73C612.814 224.843 614.424 224.4 616.198 224.4H638.108C639.928 224.4 641.561 224.843 643.008 225.73C644.454 226.617 645.621 227.783 646.508 229.23C647.394 230.677 647.838 232.287 647.838 234.06V235.6H638.598V234.41C638.598 234.177 638.504 233.99 638.318 233.85C638.178 233.663 637.991 233.57 637.758 233.57H616.548C616.314 233.57 616.104 233.663 615.918 233.85C615.778 233.99 615.708 234.177 615.708 234.41V239.24C615.708 239.473 615.778 239.683 615.918 239.87C616.104 240.01 616.314 240.08 616.548 240.08H638.108C639.928 240.08 641.561 240.523 643.008 241.41C644.454 242.297 645.621 243.463 646.508 244.91C647.394 246.357 647.838 247.967 647.838 249.74V255.34C647.838 257.113 647.394 258.723 646.508 260.17C645.621 261.617 644.454 262.783 643.008 263.67C641.561 264.557 639.928 265 638.108 265H616.198Z" fill="white"/>
</svg>
