<svg xmlns="http://www.w3.org/2000/svg" version="1.1" xmlns:xlink="http://www.w3.org/1999/xlink" xmlns:svgjs="http://svgjs.com/svgjs" width="1440" height="560" preserveAspectRatio="none" viewBox="0 0 1440 560"><g mask="url(&quot;#SvgjsMask1045&quot;)" fill="none"><rect width="1440" height="560" x="0" y="0" fill="rgba(32, 32, 32, 1)"></rect><path d="M 0,20 C 96,40.4 288,118.8 480,122 C 672,125.2 768,38.8 960,36 C 1152,33.2 1344,93.6 1440,108L1440 560L0 560z" fill="rgba(51, 51, 51, 1)"></path><path d="M 0,160 C 48,172.4 144,225.4 240,222 C 336,218.6 384,140.4 480,143 C 576,145.6 624,234.4 720,235 C 816,235.6 864,141.4 960,146 C 1056,150.6 1104,253.6 1200,258 C 1296,262.4 1392,186 1440,168L1440 560L0 560z" fill="rgba(39, 39, 39, 1)"></path><path d="M 0,298 C 22.2,316.8 66.6,391.6 111,392 C 155.4,392.4 177.6,295.4 222,300 C 266.4,304.6 288.6,418.4 333,415 C 377.4,411.6 399.6,289.2 444,283 C 488.4,276.8 510.6,375.4 555,384 C 599.4,392.6 621.6,321.4 666,326 C 710.4,330.6 732.6,414.8 777,407 C 821.4,399.2 843.6,284.6 888,287 C 932.4,289.4 954.6,419.2 999,419 C 1043.4,418.8 1065.6,298.4 1110,286 C 1154.4,273.6 1176.6,346 1221,357 C 1265.4,368 1288.2,340.2 1332,341 C 1375.8,341.8 1418.4,357 1440,361L1440 560L0 560z" fill="rgba(59, 59, 59, 1)"></path><path d="M 0,491 C 48,488.4 144,471.2 240,478 C 336,484.8 384,531.8 480,525 C 576,518.2 624,444 720,444 C 816,444 864,516 960,525 C 1056,534 1104,487.6 1200,489 C 1296,490.4 1392,523.4 1440,532L1440 560L0 560z" fill="rgba(49, 49, 49, 1)"></path></g><defs><mask id="SvgjsMask1045"><rect width="1440" height="560" fill="#ffffff"></rect></mask></defs></svg>