<svg xmlns="http://www.w3.org/2000/svg" version="1.1" xmlns:xlink="http://www.w3.org/1999/xlink" xmlns:svgjs="http://svgjs.com/svgjs" width="2048" height="6000" preserveAspectRatio="none" viewBox="0 0 2048 6000"><g mask="url(&quot;#SvgjsMask1028&quot;)" fill="none"><rect width="2048" height="6000" x="0" y="0" fill="rgba(32, 32, 32, 1)"></rect><path d="M631.92 4468.4a135.32 135.32 0 1 0 269.88-20.24z" stroke="rgba(37, 37, 37, 1)"></path><path d="M1071.96 1235.5 a75.24 75.24 0 1 0 150.48 0 a75.24 75.24 0 1 0 -150.48 0z" fill="rgba(37, 37, 37, 1)"></path><path d="M637.76 2617.58a11.19 11.19 0 1 0 15.67 15.98z" fill="rgba(55, 55, 55, 1)"></path><path d="M1636.07 1125.54 a116.47 116.47 0 1 0 232.94 0 a116.47 116.47 0 1 0 -232.94 0z" fill="rgba(37, 37, 37, 1)"></path><path d="M614.17 2575.03 a175.47 175.47 0 1 0 350.94 0 a175.47 175.47 0 1 0 -350.94 0z" fill="rgba(49, 49, 49, 1)"></path><path d="M1924.68 466.1L2030.1 466.1L2030.1 571.52L1924.68 571.52z" stroke="rgba(37, 37, 37, 1)"></path><path d="M1456.14 4511.57a133.96 133.96 0 1 0 227.58-141.38z" fill="rgba(55, 55, 55, 1)"></path><path d="M186.11 1055.57 a115.23 115.23 0 1 0 230.46 0 a115.23 115.23 0 1 0 -230.46 0z" fill="rgba(37, 37, 37, 1)"></path><path d="M2064.18 2312.43a36.49 36.49 0 1 0-72.81-4.97z" stroke="rgba(49, 49, 49, 1)"></path><path d="M1460.96 5572.55a197.39 197.39 0 1 0-381.11 103z" stroke="rgba(49, 49, 49, 1)"></path><path d="M1802.96 5388.73L1915.79 5388.73L1915.79 5574.61L1802.96 5574.61z" stroke="rgba(37, 37, 37, 1)"></path><path d="M1889.98 2471.34L2087.31 2471.34L2087.31 2668.67L1889.98 2668.67z" stroke="rgba(37, 37, 37, 1)"></path><path d="M365.18 957.17L549.06 957.17L549.06 1096.94L365.18 1096.94z" stroke="rgba(55, 55, 55, 1)"></path><path d="M1454.97 5884.02L1640.75 5884.02L1640.75 5930.55L1454.97 5930.55z" stroke="rgba(37, 37, 37, 1)"></path><path d="M116.95 3684.08L299.87 3684.08L299.87 3853.45L116.95 3853.45z" fill="rgba(37, 37, 37, 1)"></path><path d="M1439.99 4911.96a165.06 165.06 0 1 0-6.97 330.04z" stroke="rgba(49, 49, 49, 1)"></path><path d="M1259.2 5186.61a71 71 0 1 0 106.16 94.3z" fill="rgba(49, 49, 49, 1)"></path><path d="M993.78 2043.11a47.05 47.05 0 1 0-2.54 94.07z" stroke="rgba(49, 49, 49, 1)"></path><path d="M1792.71 3951.64L1844.41 3951.64L1844.41 3981.08L1792.71 3981.08z" fill="rgba(49, 49, 49, 1)"></path><path d="M769.6 1653.81L948.2 1653.81L948.2 1832.41L769.6 1832.41z" fill="rgba(55, 55, 55, 1)"></path><path d="M1334.21 4022.24 a83.88 83.88 0 1 0 167.76 0 a83.88 83.88 0 1 0 -167.76 0z" fill="rgba(37, 37, 37, 1)"></path><path d="M771.38 1184.56 a145.18 145.18 0 1 0 290.36 0 a145.18 145.18 0 1 0 -290.36 0z" fill="rgba(37, 37, 37, 1)"></path><path d="M1718.03 822.23L1816.57 822.23L1816.57 870.78L1718.03 870.78z" stroke="rgba(49, 49, 49, 1)"></path><path d="M1842.73 2076.33L2020.98 2076.33L2020.98 2254.58L1842.73 2254.58z" stroke="rgba(55, 55, 55, 1)"></path><path d="M1045.93 5107.97a1.72 1.72 0 1 0 2.38 2.48z" stroke="rgba(55, 55, 55, 1)"></path><path d="M125.47 2788.62 a4.09 4.09 0 1 0 8.18 0 a4.09 4.09 0 1 0 -8.18 0z" stroke="rgba(55, 55, 55, 1)"></path><path d="M1787.18 5877.84L1930.05 5877.84L1930.05 6038.24L1787.18 6038.24z" fill="rgba(49, 49, 49, 1)"></path><path d="M210.7 2192.18L340.36 2192.18L340.36 2321.84L210.7 2321.84z" fill="rgba(55, 55, 55, 1)"></path><path d="M256.82 3540.57a158.71 158.71 0 1 0 2.71 317.41z" fill="rgba(37, 37, 37, 1)"></path><path d="M693.78 2801.58 a2.36 2.36 0 1 0 4.72 0 a2.36 2.36 0 1 0 -4.72 0z" fill="rgba(37, 37, 37, 1)"></path><path d="M1647.33 270.89 a113.2 113.2 0 1 0 226.4 0 a113.2 113.2 0 1 0 -226.4 0z" stroke="rgba(55, 55, 55, 1)"></path><path d="M980.29 3424.41 a141.68 141.68 0 1 0 283.36 0 a141.68 141.68 0 1 0 -283.36 0z" fill="rgba(55, 55, 55, 1)"></path><path d="M1587.11 4207.39L1618.23 4207.39L1618.23 4238.51L1587.11 4238.51z" stroke="rgba(55, 55, 55, 1)"></path><path d="M1054.03 5527.17L1244.16 5527.17L1244.16 5613.34L1054.03 5613.34z" fill="rgba(55, 55, 55, 1)"></path><path d="M464.93 2767.17L487.27 2767.17L487.27 2835.67L464.93 2835.67z" stroke="rgba(37, 37, 37, 1)"></path><path d="M181.12 5957.44L199.51 5957.44L199.51 5975.83L181.12 5975.83z" fill="rgba(49, 49, 49, 1)"></path><path d="M863.88 540.62L977.24 540.62L977.24 565.95L863.88 565.95z" stroke="rgba(37, 37, 37, 1)"></path></g><defs><mask id="SvgjsMask1028"><rect width="2048" height="6000" fill="#ffffff"></rect></mask></defs></svg>