<svg id="visual" viewBox="0 0 540 960" width="540" height="960" xmlns="http://www.w3.org/2000/svg" xmlns:xlink="http://www.w3.org/1999/xlink" version="1.1"><rect x="0" y="0" width="540" height="960" fill="#141414"></rect><g fill="#373737"><path d="M39.1 22.6L39.1 100.8L-39.1 100.8L-39.1 22.6L-106.9 -16.5L-67.8 -84.3L0 -45.2L67.8 -84.3L106.9 -16.5Z" transform="translate(508 636)"></path><path d="M24.6 14.2L24.6 63.3L-24.6 63.3L-24.6 14.2L-67.1 -10.4L-42.5 -52.9L0 -28.4L42.5 -52.9L67.1 -10.4Z" transform="translate(523 42)"></path><path d="M30 17.3L30 77.2L-30 77.2L-30 17.3L-81.8 -12.7L-51.9 -64.5L0 -34.6L51.9 -64.5L81.8 -12.7Z" transform="translate(197 556)"></path><path d="M27.5 15.9L27.5 70.9L-27.5 70.9L-27.5 15.9L-75.2 -11.6L-47.7 -59.3L0 -31.8L47.7 -59.3L75.2 -11.6Z" transform="translate(198 246)"></path><path d="M37.5 21.7L37.5 96.7L-37.5 96.7L-37.5 21.7L-102.5 -15.9L-65 -80.8L0 -43.3L65 -80.8L102.5 -15.9Z" transform="translate(3 785)"></path><path d="M24.3 14L24.3 62.6L-24.3 62.6L-24.3 14L-66.4 -10.3L-42.1 -52.3L0 -28L42.1 -52.3L66.4 -10.3Z" transform="translate(514 339)"></path></g></svg>