<?xml version="1.0" encoding="UTF-8" standalone="no"?>
<!-- Created with Inkscape (http://www.inkscape.org/) -->

<svg
   width="161.925mm"
   height="100.61945mm"
   viewBox="0 0 161.925 100.61945"
   version="1.1"
   id="svg3141"
   xml:space="preserve"
   inkscape:version="1.2.2 (b0a8486541, 2022-12-01, custom)"
   sodipodi:docname="eye.svg"
   xmlns:inkscape="http://www.inkscape.org/namespaces/inkscape"
   xmlns:sodipodi="http://sodipodi.sourceforge.net/DTD/sodipodi-0.dtd"
   xmlns="http://www.w3.org/2000/svg"
   xmlns:svg="http://www.w3.org/2000/svg"><sodipodi:namedview
     id="namedview3143"
     pagecolor="#ffffff"
     bordercolor="#000000"
     borderopacity="0.25"
     inkscape:showpageshadow="2"
     inkscape:pageopacity="0.0"
     inkscape:pagecheckerboard="0"
     inkscape:deskcolor="#d1d1d1"
     inkscape:document-units="mm"
     showgrid="false"
     inkscape:zoom="0.48106061"
     inkscape:cx="-58.204724"
     inkscape:cy="345.07087"
     inkscape:window-width="1366"
     inkscape:window-height="717"
     inkscape:window-x="0"
     inkscape:window-y="25"
     inkscape:window-maximized="1"
     inkscape:current-layer="layer1" /><defs
     id="defs3138" /><g
     inkscape:label="Capa 1"
     inkscape:groupmode="layer"
     id="layer1"
     transform="translate(-20.904457,-57.034184)"><g
       id="g3949"
       transform="matrix(0.26458333,0,0,0.26458333,20.904325,26.381411)"
       style="fill:#ff9900;fill-opacity:1"><g
         id="g3893"
         style="fill:#ff9900;fill-opacity:1">
	<g
   id="g3891"
   style="fill:#ff9900;fill-opacity:1">
		<path
   d="m 609.608,315.426 c 3.19,-5.874 3.19,-12.979 0,-18.853 -58.464,-107.643 -172.5,-180.72 -303.607,-180.72 -131.107,0 -245.144,73.078 -303.608,180.72 -3.19,5.874 -3.19,12.979 0,18.853 58.465,107.643 172.499,180.721 303.607,180.721 131.108,0 245.143,-73.078 303.608,-180.721 z M 306,451.855 c -80.554,0 -145.855,-65.302 -145.855,-145.855 0,-80.553 65.301,-145.856 145.855,-145.856 80.554,0 145.856,65.302 145.856,145.856 0,80.554 -65.302,145.855 -145.856,145.855 z"
   id="path3887"
   style="fill:#ff9900;fill-opacity:1" />
		<path
   d="m 306,231.67 c -6.136,0 -12.095,0.749 -17.798,2.15 5.841,6.76 9.383,15.563 9.383,25.198 0,21.3 -17.267,38.568 -38.568,38.568 -9.635,0 -18.438,-3.541 -25.198,-9.383 -1.401,5.703 -2.15,11.662 -2.15,17.798 0,41.052 33.279,74.33 74.33,74.33 41.051,0 74.33,-33.279 74.33,-74.33 0,-41.051 -33.277,-74.331 -74.329,-74.331 z"
   id="path3889"
   style="fill:#ff9900;fill-opacity:1" />
	</g>
</g><g
         id="g3895"
         style="fill:#ff9900;fill-opacity:1">
</g><g
         id="g3897"
         style="fill:#ff9900;fill-opacity:1">
</g><g
         id="g3899"
         style="fill:#ff9900;fill-opacity:1">
</g><g
         id="g3901"
         style="fill:#ff9900;fill-opacity:1">
</g><g
         id="g3903"
         style="fill:#ff9900;fill-opacity:1">
</g><g
         id="g3905"
         style="fill:#ff9900;fill-opacity:1">
</g><g
         id="g3907"
         style="fill:#ff9900;fill-opacity:1">
</g><g
         id="g3909"
         style="fill:#ff9900;fill-opacity:1">
</g><g
         id="g3911"
         style="fill:#ff9900;fill-opacity:1">
</g><g
         id="g3913"
         style="fill:#ff9900;fill-opacity:1">
</g><g
         id="g3915"
         style="fill:#ff9900;fill-opacity:1">
</g><g
         id="g3917"
         style="fill:#ff9900;fill-opacity:1">
</g><g
         id="g3919"
         style="fill:#ff9900;fill-opacity:1">
</g><g
         id="g3921"
         style="fill:#ff9900;fill-opacity:1">
</g><g
         id="g3923"
         style="fill:#ff9900;fill-opacity:1">
</g></g></g></svg>
