<?xml version="1.0" encoding="UTF-8" standalone="no"?>
<!-- Created with Inkscape (http://www.inkscape.org/) -->

<svg
   width="169.33333mm"
   height="101.63686mm"
   viewBox="0 0 169.33333 101.63686"
   version="1.1"
   id="svg6652"
   xml:space="preserve"
   inkscape:version="1.2.2 (b0a8486541, 2022-12-01, custom)"
   sodipodi:docname="handshake"
   xmlns:inkscape="http://www.inkscape.org/namespaces/inkscape"
   xmlns:sodipodi="http://sodipodi.sourceforge.net/DTD/sodipodi-0.dtd"
   xmlns="http://www.w3.org/2000/svg"
   xmlns:svg="http://www.w3.org/2000/svg"><sodipodi:namedview
     id="namedview6654"
     pagecolor="#ffffff"
     bordercolor="#000000"
     borderopacity="0.25"
     inkscape:showpageshadow="2"
     inkscape:pageopacity="0.0"
     inkscape:pagecheckerboard="0"
     inkscape:deskcolor="#d1d1d1"
     inkscape:document-units="mm"
     showgrid="false"
     inkscape:zoom="0.48106061"
     inkscape:cx="-37.417323"
     inkscape:cy="276.47244"
     inkscape:window-width="1366"
     inkscape:window-height="717"
     inkscape:window-x="0"
     inkscape:window-y="25"
     inkscape:window-maximized="1"
     inkscape:current-layer="layer1" /><defs
     id="defs6649" /><g
     inkscape:label="Capa 1"
     inkscape:groupmode="layer"
     id="layer1"
     transform="translate(-15.450288,-75.143889)"><path
       d="m 130.46466,75.143889 h -22.72771 c -2.11666,0 -4.15395,0.79375 -5.715,2.2225 L 76.013413,101.17889 c -0.02646,0.0265 -0.05292,0.0794 -0.07937,0.10583 -4.392083,4.1275 -4.312708,10.71563 -0.555625,14.81667 3.360208,3.67771 10.424583,4.65667 14.843125,0.71437 0.02646,-0.0265 0.07937,-0.0265 0.105833,-0.0529 L 111.46758,97.395344 c 1.7198,-1.561041 4.41854,-1.455208 5.97959,0.264584 1.5875,1.719791 1.4552,4.392082 -0.26458,5.979582 l -6.90564,6.32355 38.52333,31.27375 c 0.76729,0.635 1.45521,1.32291 2.09022,2.03729 V 92.077222 l -14.44625,-14.44625 c -1.56104,-1.5875 -3.73063,-2.487083 -5.97959,-2.487083 z m 28.91896,16.98625 v 59.240211 c 0,4.68312 3.78354,8.46667 8.46666,8.46667 h 16.93334 V 92.130139 Z m 12.69999,59.240211 c -2.32833,0 -4.23333,-1.905 -4.23333,-4.23334 0,-2.32833 1.905,-4.23333 4.23333,-4.23333 2.32834,0 4.23334,1.905 4.23334,4.23333 0,2.32834 -1.905,4.23334 -4.23334,4.23334 z m -156.633322,8.44021 h 16.933333 c 4.683125,0 8.466667,-3.78354 8.466667,-8.46667 V 92.130139 h -25.4 z m 12.7,-16.90688 c 2.328333,0 4.233333,1.905 4.233333,4.23333 0,2.32834 -1.905,4.23334 -4.233333,4.23334 -2.328333,0 -4.233333,-1.905 -4.233333,-4.23334 0,-2.35479 1.905,-4.23333 4.233333,-4.23333 z m 115.331862,4.92125 -39.50228,-32.0675 -7.937499,7.27604 c -7.858125,7.17021 -19.896666,6.48229 -26.908125,-1.16416 -7.117291,-7.77875 -6.561666,-19.8173 1.164167,-26.908129 L 91.94133,75.143889 H 69.769246 c -2.248958,0 -4.392083,0.899583 -5.979583,2.487083 l -14.472708,14.44625 v 59.240208 h 4.841875 l 23.944791,21.66938 c 7.249584,5.90021 17.912292,4.78896 23.812499,-2.46063 l 0.0529,-0.0529 4.73604,4.10104 c 4.20688,3.43958 10.42458,2.77812 13.83771,-1.42875 l 8.30792,-10.21292 1.42875,1.16417 c 3.62479,2.93687 8.96936,2.40771 11.90624,-1.24354 l 2.51354,-3.09563 c 2.96333,-3.65125 2.40771,-8.96938 -1.21709,-11.93271 z"
       id="path7035"
       style="fill:#ff9900;fill-opacity:1;stroke-width:0.264583" /></g></svg>
