<svg width="1920" height="1080" viewBox="0 0 1920 1080" xmlns="http://www.w3.org/2000/svg"><rect width="1920" height="1080" fill="#202020"/><path d="M 0,1080 C 0,1080 0,270 0,270 C 91.53414659606369,218.8686623393877 183.06829319212738,167.73732467877542 214,191 C 244.93170680787262,214.26267532122458 215.2609738275541,311.91936362428595 255,340 C 294.7390261724459,368.08063637571405 403.8878114976561,326.5852208240809 477,287 C 550.1121885023439,247.4147791759191 587.1877801818216,209.7397530793904 665,200 C 742.8122198181784,190.2602469206096 861.3610677750574,208.45576685835752 887,214 C 912.6389322249426,219.54423314164248 845.3679487179488,212.4371794871795 879,206 C 912.6320512820512,199.5628205128205 1047.1671373531476,193.79551519292457 1111,202 C 1174.8328626468524,210.20448480707543 1167.9635018694603,232.3807597411224 1226,254 C 1284.0364981305397,275.6192402588776 1406.9788551690106,296.6814458425858 1460,312 C 1513.0211448309894,327.3185541574142 1496.121077454497,336.89345688853456 1537,308 C 1577.878922545503,279.10654311146544 1676.5368350130009,211.74472660327586 1750,199 C 1823.4631649869991,186.25527339672414 1871.7315824934994,228.12763669836207 1920,270 C 1920,270 1920,1080 1920,1080 Z" fill="#62594b" opacity="0.15"/><path d="M 0,1080 C 0,1080 0,540 0,540 C 13.818477291275215,583.9910541099661 27.63695458255043,627.9821082199321 70,596 C 112.36304541744957,564.0178917800679 183.27065896107348,456.06262123023777 242,450 C 300.7293410389265,443.93737876976223 347.2804095731556,539.7674068591167 424,559 C 500.7195904268444,578.2325931408833 607.6077027463039,520.8677513332954 692,498 C 776.3922972536961,475.13224866670464 838.288779441629,486.76158780770174 870,520 C 901.711220558371,553.2384121922983 903.2371794871794,608.0858974358973 931,631 C 958.7628205128206,653.9141025641027 1012.7625026096528,644.8948224487084 1097,599 C 1181.2374973903472,553.1051775512916 1295.712810074209,470.3348127692688 1342,452 C 1388.287189925791,433.6651872307312 1366.386257093511,479.7659264742166 1386,500 C 1405.613742906489,520.2340735257834 1466.7421615517471,514.6014813338647 1542,508 C 1617.2578384482529,501.39851866613526 1706.645096699501,493.8281481903243 1772,499 C 1837.354903300499,504.1718518096757 1878.6774516502496,522.0859259048378 1920,540 C 1920,540 1920,1080 1920,1080 Z" fill="#62594b" opacity="0.3"/><path d="M 0,1080 C 0,1080 0,810 0,810 C 9.703447588680746,817.9641756343829 19.40689517736149,825.9283512687658 78,805 C 136.5931048226385,784.0716487312342 244.07586687923475,734.2507705593198 307,734 C 369.92413312076525,733.7492294406802 388.28963730569944,783.0685664939551 424,808 C 459.71036269430056,832.9314335060449 512.7655838979674,833.4749634648599 593,812 C 673.2344161020326,790.5250365351401 780.6480271024311,747.0315796466056 840,771 C 899.3519728975689,794.9684203533944 910.6423076923078,886.3987179487181 962,879 C 1013.3576923076922,871.6012820512819 1104.7827421283382,765.3735485585227 1160,714 C 1215.2172578716618,662.6264514414773 1234.2267237943402,666.1070878171914 1265,709 C 1295.7732762056598,751.8929121828086 1338.3103626943007,834.1981001727116 1408,830 C 1477.6896373056993,825.8018998272884 1574.5318254284575,735.1005114919624 1625,724 C 1675.4681745715425,712.8994885080376 1679.5623355918694,781.3998538594394 1721,809 C 1762.4376644081306,836.6001461405606 1841.2188322040652,823.3000730702803 1920,810 C 1920,810 1920,1080 1920,1080 Z" fill="#62594b" opacity="0.44999999999999996"/></svg>