<?xml version="1.0" encoding="utf-8"?>
<svg width="1237.9882px" height="329.98813px" viewBox="0 0 1237.9882 329.98813" version="1.1" xmlns:xlink="http://www.w3.org/1999/xlink" xmlns="http://www.w3.org/2000/svg">
  <defs>
    <path d="M0 19C0 8.50659 8.50659 0 19 0C29.4934 0 38 8.50659 38 19C38 29.4934 29.4934 38 19 38C8.50659 38 0 29.4934 0 19Z" id="path_1" />
    <path d="M134.1 197C134.1 186.507 142.607 178 153.1 178C163.593 178 172.1 186.507 172.1 197C172.1 207.493 163.593 216 153.1 216C142.607 216 134.1 207.493 134.1 197Z" id="path_2" />
    <path d="M1140 144.9C1140 134.407 1148.51 125.9 1159 125.9C1169.49 125.9 1178 134.407 1178 144.9C1178 155.393 1169.49 163.9 1159 163.9C1148.51 163.9 1140 155.393 1140 144.9Z" id="path_3" />
    <path d="M67.1 96.5C67.1 77.9985 82.0985 63 100.6 63C119.102 63 134.1 77.9985 134.1 96.5C134.1 115.002 119.102 130 100.6 130C82.0985 130 67.1 115.002 67.1 96.5Z" id="path_4" />
    <path d="M1020 163.5C1020 144.998 1035 130 1053.5 130C1072 130 1087 144.998 1087 163.5C1087 182.002 1072 197 1053.5 197C1035 197 1020 182.002 1020 163.5Z" id="path_5" />
    <path d="M1171.74 312.238L1176.5 233L1237.99 268.5L1171.74 312.238Z" id="path_6" />
    <clipPath id="clip_1">
      <use xlink:href="#path_1" />
    </clipPath>
    <clipPath id="clip_2">
      <use xlink:href="#path_2" />
    </clipPath>
    <clipPath id="clip_3">
      <use xlink:href="#path_3" />
    </clipPath>
    <clipPath id="clip_4">
      <use xlink:href="#path_4" />
    </clipPath>
    <clipPath id="clip_5">
      <use xlink:href="#path_5" />
    </clipPath>
    <clipPath id="clip_6">
      <use xlink:href="#path_6" />
    </clipPath>
  </defs>
  <g id="Oval">
    <use stroke="none" fill="#D3D3D3" fill-opacity="0" xlink:href="#path_1" fill-rule="evenodd" />
    <g clip-path="url(#clip_1)">
      <use xlink:href="#path_1" fill="none" stroke="#FF9900" stroke-width="12" />
    </g>
  </g>
  <g id="Oval-Copy-7">
    <use stroke="none" fill="#D3D3D3" fill-opacity="0" xlink:href="#path_2" fill-rule="evenodd" />
    <g clip-path="url(#clip_2)">
      <use xlink:href="#path_2" fill="none" stroke="#0099FF" stroke-width="12" />
    </g>
  </g>
  <g id="Oval-Copy-6">
    <use stroke="none" fill="#D3D3D3" fill-opacity="0" xlink:href="#path_3" fill-rule="evenodd" />
    <g clip-path="url(#clip_3)">
      <use xlink:href="#path_3" fill="none" stroke="#FF9900" stroke-width="12" />
    </g>
  </g>
  <g id="Oval-Copy">
    <use stroke="none" fill="#D3D3D3" fill-opacity="0" xlink:href="#path_4" fill-rule="evenodd" />
    <g clip-path="url(#clip_4)">
      <use xlink:href="#path_4" fill="none" stroke="#0099FF" stroke-width="22" />
    </g>
  </g>
  <g id="Oval-Copy-5">
    <use stroke="none" fill="#D3D3D3" fill-opacity="0" xlink:href="#path_5" fill-rule="evenodd" />
    <g clip-path="url(#clip_5)">
      <use xlink:href="#path_5" fill="none" stroke="#0099FF" stroke-width="22" />
    </g>
  </g>
  <path d="M1141 38C1141 24.1929 1152.19 13 1166 13C1179.81 13 1191 24.1929 1191 38C1191 51.8071 1179.81 63 1166 63C1152.19 63 1141 51.8071 1141 38Z" id="Oval-Copy-4" fill="#0099FF" fill-rule="evenodd" stroke="none" />
  <path d="M29.4666 208.21L67.1248 238.095L28.1536 256.267L29.4666 208.21Z" id="Triangle" fill="#FF00BB" fill-rule="evenodd" stroke="none" />
  <g id="Triangle-Copy-2">
    <use stroke="none" fill="#FF9900" fill-opacity="0" xlink:href="#path_6" fill-rule="evenodd" />
    <g clip-path="url(#clip_6)">
      <use xlink:href="#path_6" fill="none" stroke="#FF00BB" stroke-width="14" />
    </g>
  </g>
</svg>