<?xml version="1.0" encoding="UTF-8" standalone="no"?>
<!-- Created with Inkscape (http://www.inkscape.org/) -->

<svg
   width="119.0797mm"
   height="119.0797mm"
   viewBox="0 0 119.0797 119.0797"
   version="1.1"
   id="svg5"
   xml:space="preserve"
   inkscape:version="1.2.2 (b0a8486541, 2022-12-01, custom)"
   sodipodi:docname="target.svg"
   xmlns:inkscape="http://www.inkscape.org/namespaces/inkscape"
   xmlns:sodipodi="http://sodipodi.sourceforge.net/DTD/sodipodi-0.dtd"
   xmlns="http://www.w3.org/2000/svg"
   xmlns:svg="http://www.w3.org/2000/svg"><sodipodi:namedview
     id="namedview7"
     pagecolor="#ffffff"
     bordercolor="#000000"
     borderopacity="0.25"
     inkscape:showpageshadow="2"
     inkscape:pageopacity="0.0"
     inkscape:pagecheckerboard="0"
     inkscape:deskcolor="#d1d1d1"
     inkscape:document-units="mm"
     showgrid="false"
     inkscape:zoom="0.48106061"
     inkscape:cx="-81.070866"
     inkscape:cy="336.75591"
     inkscape:window-width="1366"
     inkscape:window-height="717"
     inkscape:window-x="0"
     inkscape:window-y="25"
     inkscape:window-maximized="1"
     inkscape:current-layer="layer1" /><defs
     id="defs2" /><g
     inkscape:label="Capa 1"
     inkscape:groupmode="layer"
     id="layer1"
     transform="translate(-26.9165,-15.141283)"><g
       id="g83"
       transform="matrix(0.26458333,0,0,0.26458333,26.9165,15.141283)"
       style="fill:#ff9900;fill-opacity:1"><g
         id="XMLID_33_"
         style="fill:#ff9900;fill-opacity:1">
	<path
   id="XMLID_338_"
   d="m 340,250.065 c 0,2.416 -0.061,4.818 -0.182,7.204 -3.628,71.586 -61.028,128.985 -132.613,132.614 -2.386,0.121 -4.789,0.182 -7.205,0.182 -2.416,0 -4.818,-0.061 -7.205,-0.182 C 121.21,386.255 63.811,328.855 60.182,257.27 60.061,254.884 60,252.482 60,250.066 c 0,-74.904 58.824,-136.068 132.795,-139.818 2.386,-0.121 4.789,-0.182 7.205,-0.182 2.416,0 4.818,0.062 7.205,0.182 19.577,0.993 38.088,6.015 54.733,14.241 L 305.985,80.442 C 275.254,61.2 238.93,50.065 200,50.065 c -110.457,0 -200,89.543 -200,200 0,110.457 89.543,200 200,200 110.457,0 200,-89.543 200,-200 0,-38.931 -11.135,-75.255 -30.376,-105.984 l -44.047,44.046 C 334.806,206.802 340,227.825 340,250.065 Z"
   style="fill:#ff9900;fill-opacity:1" />
	<path
   id="XMLID_340_"
   d="m 239.242,274.463 -75.001,11.362 11.361,-75.001 63.57,-63.571 c -12.17,-4.64 -25.373,-7.188 -39.172,-7.188 -60.752,0 -110,49.248 -110,110 0,60.751 49.248,110 110,110 60.752,0 110,-49.249 110,-110 0,-13.8 -2.548,-27.002 -7.188,-39.173 z"
   style="fill:#ff9900;fill-opacity:1" />
	<polygon
   id="XMLID_341_"
   points="357.341,71.511 203.787,225.065 200,250.065 225,246.278 378.554,92.725 450.065,92.725 450.065,62.725 408.554,62.725 429.81,41.469 408.596,20.255 387.341,41.511 387.341,0 357.341,0 "
   style="fill:#ff9900;fill-opacity:1" />
</g><g
         id="g29"
         style="fill:#ff9900;fill-opacity:1">
</g><g
         id="g31"
         style="fill:#ff9900;fill-opacity:1">
</g><g
         id="g33"
         style="fill:#ff9900;fill-opacity:1">
</g><g
         id="g35"
         style="fill:#ff9900;fill-opacity:1">
</g><g
         id="g37"
         style="fill:#ff9900;fill-opacity:1">
</g><g
         id="g39"
         style="fill:#ff9900;fill-opacity:1">
</g><g
         id="g41"
         style="fill:#ff9900;fill-opacity:1">
</g><g
         id="g43"
         style="fill:#ff9900;fill-opacity:1">
</g><g
         id="g45"
         style="fill:#ff9900;fill-opacity:1">
</g><g
         id="g47"
         style="fill:#ff9900;fill-opacity:1">
</g><g
         id="g49"
         style="fill:#ff9900;fill-opacity:1">
</g><g
         id="g51"
         style="fill:#ff9900;fill-opacity:1">
</g><g
         id="g53"
         style="fill:#ff9900;fill-opacity:1">
</g><g
         id="g55"
         style="fill:#ff9900;fill-opacity:1">
</g><g
         id="g57"
         style="fill:#ff9900;fill-opacity:1">
</g></g></g></svg>
